<svg xmlns:xlink="http://www.w3.org/1999/xlink" xmlns="http://www.w3.org/2000/svg" viewBox="11881 8867 399.001 96.618" width="399.001"  height="96.618" >
  <defs>
    <style>
      .cls-1 {
        fill: #010101;
      }

      .cls-2 {
        fill: #020202;
      }
    </style>
  </defs>
  <g id="Fabuwood_Logo" data-name="Fabuwood Logo" transform="translate(11768.4 8518.3)">
    <g id="Group_120" data-name="Group 120" transform="translate(222.566 365.95)">
      <path id="Path_243" data-name="Path 243" class="cls-1" d="M221.24,418.151l1.643-.1a22.875,22.875,0,0,0,2.362-.308.818.818,0,0,0,.719-.924V388.786l-6.263-.205,1.232-3.183h4.928l.205-2.054a20.622,20.622,0,0,1,1.848-7.5,17.28,17.28,0,0,1,3.8-5.339,15.025,15.025,0,0,1,4.928-3.183,14.088,14.088,0,0,1,5.339-1.027,7.174,7.174,0,0,1,4.518,1.232,3.634,3.634,0,0,1-2.362,6.571,4.333,4.333,0,0,1-3.08-1.437,7.137,7.137,0,0,1-1.951-3.7l-.205-.513-1.335-.205a7.2,7.2,0,0,0-3.8,4.62,33,33,0,0,0-1.027,8.83V385.3h10.884l-4.415,3.286H232.74v28.133c0,.411.205.616.616.821a11.188,11.188,0,0,0,3.08.411l3.08.1.205,1.232H221.035Z" transform="translate(-219.7 -365.479)"/>
      <path id="Path_244" data-name="Path 244" class="cls-1" d="M263.734,419.745c-3.286,0-5.134-1.951-5.442-5.853l-.205-.1a28.638,28.638,0,0,1-4.518,4.107,9.25,9.25,0,0,1-8.727,1.129,8.03,8.03,0,0,1-2.67-1.746,6.594,6.594,0,0,1-1.848-2.567,8.465,8.465,0,0,1-.719-3.183,8,8,0,0,1,.924-3.8,9.238,9.238,0,0,1,3.08-3.286,25.851,25.851,0,0,1,5.853-2.875,67.558,67.558,0,0,1,9.138-2.67l.1-1.951a15.826,15.826,0,0,0-.513-5.134,11.568,11.568,0,0,0-1.54-3.388,7.083,7.083,0,0,0-2.464-1.848,7.982,7.982,0,0,0-3.183-.513,13.913,13.913,0,0,0-2.054.205,10.072,10.072,0,0,0-3.183,1.335c-.411.308-.513.513-.513.616a.887.887,0,0,0,.308.616,5.643,5.643,0,0,0,.719.924c.205.308.411.719.719,1.232a3.751,3.751,0,0,1,.308,1.54,2.973,2.973,0,0,1-1.027,2.362,3.8,3.8,0,0,1-2.875,1.027,4.126,4.126,0,0,1-2.875-1.027,3.07,3.07,0,0,1-1.129-2.362,4.846,4.846,0,0,1,1.54-3.183,16.718,16.718,0,0,1,3.9-2.875,20.843,20.843,0,0,1,5.134-2.156,19.687,19.687,0,0,1,5.134-.821,19.008,19.008,0,0,1,5.134.616,6.907,6.907,0,0,1,3.388,2.156,8.9,8.9,0,0,1,1.746,4.107,31.557,31.557,0,0,1,.308,6.571l-.719,14.58c-.205,2.567.616,3.9,2.464,3.9a2.788,2.788,0,0,0,1.746-.616,18.743,18.743,0,0,0,1.643-1.335l.719.719c-.411.513-.924,1.129-1.437,1.746a11.785,11.785,0,0,1-3.8,3.08A4.461,4.461,0,0,1,263.734,419.745Zm-12.116-4.21a8,8,0,0,0,3.183-.616,11.717,11.717,0,0,0,3.286-2.362l.513-12.321a40.007,40.007,0,0,0-6.161,1.951,14.249,14.249,0,0,0-3.8,2.259,6.459,6.459,0,0,0-1.848,2.464,7.713,7.713,0,0,0-.513,2.67,5.8,5.8,0,0,0,1.643,4.312A5.087,5.087,0,0,0,251.618,415.535Z" transform="translate(-219.173 -365.018)"/>
      <path id="Path_245" data-name="Path 245" class="cls-1" d="M271.242,373.509a3.173,3.173,0,0,0-.513-1.951,4.173,4.173,0,0,0-2.054-1.027L265.8,369.5l.1-.821,11.705-3.183v25.566l.205.1a21.885,21.885,0,0,1,5.544-4.723,12.215,12.215,0,0,1,6.571-1.848,12.986,12.986,0,0,1,5.647,1.232,12.135,12.135,0,0,1,4.415,3.491,16.054,16.054,0,0,1,2.875,5.236,19.594,19.594,0,0,1,1.027,6.571,20.763,20.763,0,0,1-1.54,8.111,18.067,18.067,0,0,1-4.107,6.058,17.228,17.228,0,0,1-5.75,3.7,18.312,18.312,0,0,1-6.571,1.335,19.264,19.264,0,0,1-5.134-.719,42.33,42.33,0,0,1-4.62-1.437h-.1l-4.21,2.567h-.616V373.509Zm16.223,45.28a6.231,6.231,0,0,0,3.8-1.232,10.8,10.8,0,0,0,2.875-3.183,15.764,15.764,0,0,0,1.848-4.826,27.194,27.194,0,0,0,.616-5.955,20.278,20.278,0,0,0-.719-5.647,15.183,15.183,0,0,0-2.054-4.518,11.265,11.265,0,0,0-3.286-2.978,8.324,8.324,0,0,0-4.21-1.129,9.643,9.643,0,0,0-4.826,1.232,13.449,13.449,0,0,0-3.7,3.08V411.5a15.857,15.857,0,0,0,4,5.134A8.455,8.455,0,0,0,287.465,418.789Z" transform="translate(-218.466 -365.5)"/>
      <path id="Path_246" data-name="Path 246" class="cls-1" d="M327.412,413.549h-.205c-.821.719-1.745,1.437-2.67,2.259a22.94,22.94,0,0,1-3.08,2.054,20.166,20.166,0,0,1-3.388,1.54,11.628,11.628,0,0,1-3.7.616,8.773,8.773,0,0,1-6.263-2.362,7.752,7.752,0,0,1-1.951-3.491,16.462,16.462,0,0,1-.616-4.723l.1-21.973a.769.769,0,0,0-.1-.513,1.1,1.1,0,0,0-.513-.308,3.351,3.351,0,0,0-1.232-.205c-.513-.1-1.232-.1-2.156-.205l-1.335-.205L300.1,384.8h12.013l-.205,22.589c0,2.875.616,4.826,1.746,5.955a7.587,7.587,0,0,0,5.339,1.745,10.917,10.917,0,0,0,4.62-.924,14.415,14.415,0,0,0,3.491-2.156V389.318c0-1.232-.205-1.951-.719-2.362a5.6,5.6,0,0,0-2.978-.719l-1.643-.205-.205-1.232H333.88v28.441a5,5,0,0,0,.205,1.54,1.275,1.275,0,0,0,.821.616l4.21,1.027-.1.821-11.808,2.772v-6.469Z" transform="translate(-217.548 -364.983)"/>
      <path id="Path_247" data-name="Path 247" class="cls-1" d="M339.069,391.577c-.411-1.129-.821-1.951-1.129-2.67a10.146,10.146,0,0,0-.924-1.54,2.912,2.912,0,0,0-1.129-.821,3.428,3.428,0,0,0-1.54-.308l-1.54-.205L332.6,384.8h17.25l-.205,1.232-1.54.205a4.5,4.5,0,0,0-2.67.821c-.411.411-.308,1.335.205,2.567l8.009,21.357,7.085-17.147-1.54-3.594a18.248,18.248,0,0,0-.821-1.848,5.363,5.363,0,0,0-.821-1.129,2.448,2.448,0,0,0-1.129-.616c-.411-.1-1.027-.205-1.746-.308l-1.335-.205-.205-1.232h17.147l-.205,1.232-1.54.205q-2,.154-2.464.924a2.7,2.7,0,0,0,.205,2.464l8.727,21.562,5.647-16.428a35.535,35.535,0,0,0,1.129-3.9,4.93,4.93,0,0,0,0-2.464,2.3,2.3,0,0,0-1.335-1.437,7.938,7.938,0,0,0-2.772-.616l-1.232-.205-.205-1.232H390.1l-.205,1.232-1.232.205a9.015,9.015,0,0,0-2.054.411,3.508,3.508,0,0,0-1.437,1.335,15.1,15.1,0,0,0-1.232,2.567c-.411,1.129-.924,2.567-1.54,4.415l-8.625,24.642h-1.848l-10.062-23.924-9.96,23.924h-1.951Z" transform="translate(-216.679 -364.983)"/>
      <path id="Path_248" data-name="Path 248" class="cls-1" d="M399.966,419.942a17.94,17.94,0,0,1-7.187-1.335,16.6,16.6,0,0,1-5.647-3.8,18.446,18.446,0,0,1-3.7-5.75,19.768,19.768,0,0,1-1.335-7.085,17.778,17.778,0,0,1,1.335-7.085,18.1,18.1,0,0,1,3.8-5.75,18.392,18.392,0,0,1,5.75-3.9,18.839,18.839,0,0,1,7.29-1.437A16.991,16.991,0,0,1,416.8,394.478a19.638,19.638,0,0,1,1.335,6.982,19.16,19.16,0,0,1-1.335,7.29,17.468,17.468,0,0,1-3.8,5.853,18.392,18.392,0,0,1-5.75,3.9A18.839,18.839,0,0,1,399.966,419.942Zm.411-1.54a7.494,7.494,0,0,0,4.21-1.232,11.251,11.251,0,0,0,3.183-3.388,17.775,17.775,0,0,0,2.054-4.928,22.54,22.54,0,0,0,.719-5.955,33.108,33.108,0,0,0-1.027-8.625,14.42,14.42,0,0,0-3.183-6.263,9.677,9.677,0,0,0-2.567-1.848,7.184,7.184,0,0,0-3.8-.821,6.95,6.95,0,0,0-4.312,1.335,10.118,10.118,0,0,0-3.183,3.388,22.585,22.585,0,0,0-1.951,4.826,25.919,25.919,0,0,0-.719,5.75,38.58,38.58,0,0,0,.924,8.727,13.792,13.792,0,0,0,3.183,6.366,8.546,8.546,0,0,0,2.67,1.951A8.964,8.964,0,0,0,400.376,418.4Z" transform="translate(-215.354 -365.01)"/>
      <path id="Path_249" data-name="Path 249" class="cls-1" d="M437.166,419.942a17.94,17.94,0,0,1-7.187-1.335,16.6,16.6,0,0,1-5.647-3.8,18.446,18.446,0,0,1-3.7-5.75,19.767,19.767,0,0,1-1.335-7.085,17.778,17.778,0,0,1,1.335-7.085,18.1,18.1,0,0,1,3.8-5.75,18.393,18.393,0,0,1,5.75-3.9,18.839,18.839,0,0,1,7.29-1.437A16.991,16.991,0,0,1,454,394.478a19.638,19.638,0,0,1,1.335,6.982A19.161,19.161,0,0,1,454,408.75a17.468,17.468,0,0,1-3.8,5.853,18.393,18.393,0,0,1-5.75,3.9A19.226,19.226,0,0,1,437.166,419.942Zm.308-1.54a7.494,7.494,0,0,0,4.21-1.232,11.251,11.251,0,0,0,3.183-3.388,17.775,17.775,0,0,0,2.054-4.928,22.54,22.54,0,0,0,.719-5.955,33.108,33.108,0,0,0-1.027-8.625,14.42,14.42,0,0,0-3.183-6.263,9.677,9.677,0,0,0-2.567-1.848,7.184,7.184,0,0,0-3.8-.821,6.95,6.95,0,0,0-4.312,1.335,10.118,10.118,0,0,0-3.183,3.388,22.585,22.585,0,0,0-1.951,4.826,25.919,25.919,0,0,0-.719,5.75,38.58,38.58,0,0,0,.924,8.727,13.792,13.792,0,0,0,3.183,6.366,8.546,8.546,0,0,0,2.67,1.951A9.618,9.618,0,0,0,437.474,418.4Z" transform="translate(-214.358 -365.01)"/>
      <path id="Path_250" data-name="Path 250" class="cls-1" d="M482.68,413.858h-.205a20.607,20.607,0,0,1-5.339,4.62,11.87,11.87,0,0,1-6.469,1.848,12.863,12.863,0,0,1-5.544-1.232,12.134,12.134,0,0,1-4.415-3.491,17.957,17.957,0,0,1-2.978-5.339,20.387,20.387,0,0,1-1.129-6.777,19.9,19.9,0,0,1,1.54-8.009,19.22,19.22,0,0,1,4.107-5.955,15.8,15.8,0,0,1,5.853-3.7,18.733,18.733,0,0,1,6.674-1.232,25.7,25.7,0,0,1,4.107.308,16.955,16.955,0,0,1,3.7,1.129h.205V372.787a3.173,3.173,0,0,0-.513-1.951,3.476,3.476,0,0,0-2.053-.924l-3.491-.821.205-.821,12.424-2.67v48.771a4.068,4.068,0,0,0,.205,1.54,1.156,1.156,0,0,0,.821.513l4.21,1.027-.1.821-11.808,2.156v-6.571Zm-8.214,1.951a9.734,9.734,0,0,0,4.723-1.129,13,13,0,0,0,3.491-2.772V393.425a13.024,13.024,0,0,0-3.9-4.928,9.1,9.1,0,0,0-5.647-2.054,6.534,6.534,0,0,0-3.9,1.232,11.1,11.1,0,0,0-2.978,3.183,15.127,15.127,0,0,0-1.848,4.723,26.919,26.919,0,0,0-.616,5.853,19.789,19.789,0,0,0,.719,5.647,15.964,15.964,0,0,0,2.156,4.62,9.682,9.682,0,0,0,3.388,3.08A9.994,9.994,0,0,0,474.466,415.809Z" transform="translate(-213.36 -365.497)"/>
      <path id="Path_251" data-name="Path 251" class="cls-1" d="M501.419,370.61a4.257,4.257,0,0,1-.308,1.643,4.538,4.538,0,0,1-2.259,2.259,4.535,4.535,0,0,1-3.286,0,4.538,4.538,0,0,1-2.259-2.259,4.535,4.535,0,0,1,0-3.286,4.538,4.538,0,0,1,2.259-2.259,4.535,4.535,0,0,1,3.286,0,4.538,4.538,0,0,1,2.259,2.259A4.651,4.651,0,0,1,501.419,370.61Zm-.411,0a3.28,3.28,0,0,0-.308-1.437,4.3,4.3,0,0,0-.821-1.232,4.56,4.56,0,0,0-1.129-.821,3.508,3.508,0,0,0-2.875,0,4.56,4.56,0,0,0-1.129.821,3.692,3.692,0,0,0-.821,1.232,3.508,3.508,0,0,0,0,2.875,4.3,4.3,0,0,0,.821,1.232,4.559,4.559,0,0,0,1.129.821,3.508,3.508,0,0,0,2.875,0,4.56,4.56,0,0,0,1.129-.821,3.693,3.693,0,0,0,.821-1.232A3.28,3.28,0,0,0,501.009,370.61Zm-2.772,2.259-.308-.513-.821-1.335H496.7v1.232c0,.1.1.1.205.205l.308.1v.411h-1.951v-.411l.308-.1a.221.221,0,0,0,.205-.205v-3.08c0-.1-.1-.1-.205-.205l-.308-.1v-.411h2.156a2.33,2.33,0,0,1,1.335.308.934.934,0,0,1,.411.821,1.2,1.2,0,0,1-1.027,1.232l.924,1.335c.1.1.1.205.205.205s.1,0,.205.1l.205.1v.411h-1.437Zm-.1-3.183a.932.932,0,0,0-.308-.719,1.484,1.484,0,0,0-.719-.205H496.8v1.745h.411a1.484,1.484,0,0,0,.719-.205A.868.868,0,0,0,498.134,369.686Z" transform="translate(-212.386 -365.476)"/>
    </g>
    <path id="Path_252" data-name="Path 252" class="cls-2" d="M199.259,383.815l-41.584-34.191-1.129-.924-1.129.924L112.6,384.739v24.54l1.129.924,41.584,34.191,1.129.924,1.129-.924,42.816-35.115v-24.54Zm-1.129,3.9v8.727l-6.263,5.134-6.879,5.647L151.1,379.4l5.339-4.415,28.544,23.41,8.933-7.29h0Zm0,11.705v8.727l-40.557,33.267v-8.727l21.665-17.763,5.75-4.723h0l2.156-1.746Zm-83.27-4.826v-8.727L155.313,352.6v8.727L127.9,383.815h0l-8.522,6.982Zm42.713-42.1,39.838,32.754-5.339,4.415-34.5-28.339V352.5ZM122.56,402.81,127.9,398.4l27.415,22.486v8.727l-23.307-19.1Zm7.187-17.558,5.442-4.518L155.313,364.2v8.727l-5.031,4.107-9.857,8.111,28.544,23.41-5.339,4.415-16.942-13.861Zm27.825,35.731,5.955-4.928h0l8.933-7.29-28.544-23.41,5.339-4.415,33.883,27.825-25.566,21.049Zm0-47.95v-8.727l32.651,26.9-5.339,4.415Zm-42.713,24.437L128,386.69l16.942,13.861,16.942,13.861-5.339,4.415L128,395.418,114.859,406.2Zm5.955,6.879,10.473,8.625,24.026,19.816v8.727l-39.838-32.754Z"/>
  </g>
</svg>