<svg xmlns="http://www.w3.org/2000/svg" viewBox="0 0 310 140"><defs><style>.a{fill:none;}.b{fill:#ac9d95;}.c{fill:#193661;}</style></defs><title>Marazzi_orig_t</title><rect class="a" width="310" height="140"/><path class="b" d="M108.35,92.66h3.31a7.8,7.8,0,0,1,4.23,1,6,6,0,0,1,.25,9.78,8.21,8.21,0,0,1-5,1.24h-2.82Zm3.15,10.61a6.16,6.16,0,0,0,3.56-.83A4.35,4.35,0,0,0,117,98.62a4.28,4.28,0,0,0-1.91-3.73,6.77,6.77,0,0,0-3.65-.83h-1.57v9.11h1.66Z"/><path class="b" d="M125.42,92.66h1.49l5,12h-1.66l-1.33-3.31h-5.39l-1.33,3.31h-1.57ZM124,99.95h4.31l-1-2.49c-.41-1-.75-2-1.16-3h0c-.33,1-.75,2-1.16,3Z"/><path class="b" d="M134.95,92.66h3.23a7,7,0,0,1,3.31.58,3.11,3.11,0,0,1,1.66,2.82,3.21,3.21,0,0,1-1.57,2.82,4.08,4.08,0,0,1-1.41.5l3.81,5.3h-1.91l-3.65-5.14h-1.91v5.14h-1.57Zm3.65,5.63a3.55,3.55,0,0,0,2.32-.58,1.88,1.88,0,0,0,.75-1.49,2,2,0,0,0-1-1.74,5.54,5.54,0,0,0-2.57-.41h-1.57v4.14h2.07Z"/><path class="b" d="M147.29,92.66h7v1.41h-5.39v3.65h4.72v1.41h-4.72v4.14h5.47v1.41h-7Z"/><path class="b" d="M166,94.15H162V92.74h9.61v1.41h-4.06v10.61h-1.57V94.15Z"/><path class="b" d="M180.19,92.49a6.22,6.22,0,1,1-6.13,6.21A6.09,6.09,0,0,1,180.19,92.49Zm0,10.94a4.73,4.73,0,1,0-4.56-4.72A4.53,4.53,0,0,0,180.19,103.43Z"/><path class="b" d="M195.6,92.66h3.23a5.88,5.88,0,0,1,3.23.66,2.82,2.82,0,0,1,1.41,2.49,2.64,2.64,0,0,1-1.82,2.57h0a2.72,2.72,0,0,1,2.32,2.82,3.13,3.13,0,0,1-1.41,2.73,6.37,6.37,0,0,1-3.73.83h-3.15V92.66ZM199.5,98c1.24,0,2.32-.58,2.32-1.91a1.55,1.55,0,0,0-.83-1.49,4.63,4.63,0,0,0-2.4-.41h-1.41V98Zm-.66,5.3a5,5,0,0,0,2.65-.5,1.71,1.71,0,0,0,.75-1.57c0-1.33-1.08-2.07-2.82-2.07h-2.32v4.14Z"/><path class="b" d="M207.78,92.66h7v1.41h-5.39v3.65h4.72v1.41h-4.72v4.14h5.47v1.41h-7Z"/><path class="b" d="M224.19,92.66h3.23a5.88,5.88,0,0,1,3.23.66,2.82,2.82,0,0,1,1.41,2.49,2.64,2.64,0,0,1-1.82,2.57h0a2.72,2.72,0,0,1,2.32,2.82,3.13,3.13,0,0,1-1.41,2.73,6.37,6.37,0,0,1-3.73.83h-3.15V92.66Zm4,5.3c1.24,0,2.32-.58,2.32-1.91a1.55,1.55,0,0,0-.83-1.49,4.63,4.63,0,0,0-2.4-.41h-1.41V98Zm-.66,5.3a5,5,0,0,0,2.65-.5,1.71,1.71,0,0,0,.75-1.57c0-1.33-1.08-2.07-2.82-2.07h-2.32v4.14Z"/><path class="b" d="M241.76,92.49a6.22,6.22,0,1,1-6.13,6.21A6.09,6.09,0,0,1,241.76,92.49Zm0,10.94a4.73,4.73,0,1,0-4.56-4.72A4.58,4.58,0,0,0,241.76,103.43Z"/><path class="b" d="M251.54,92.66h1.57v10.61h5.63v1.41h-7.21v-12Z"/><path class="b" d="M262.31,92.66h3.31a7.8,7.8,0,0,1,4.23,1,6,6,0,0,1,.25,9.78,8.21,8.21,0,0,1-5,1.24h-2.9v-12Zm3.15,10.61a6.16,6.16,0,0,0,3.56-.83,4.35,4.35,0,0,0,1.91-3.81A4.28,4.28,0,0,0,269,94.89a6.77,6.77,0,0,0-3.65-.83H263.8v9.11h1.66Z"/><path class="c" d="M256.26,68.79l8.12-8.7,8,8.12v-21h-32.4V67.55l8-7.46Zm.25-16.66,6.3,6.38-2.49,2.57-3.81-4.56-4.31,4.56-2.57-2.57Z"/><polygon class="c" points="256.26 73.35 247.81 64.65 239.94 72.11 239.94 79.98 272.33 79.98 272.33 72.77 264.3 64.65 256.26 73.35"/><path class="c" d="M49.6,65.31c-1.66-2.32-3.31-4.64-4.89-7l-.17.08c.08,2.32.08,5.39.08,8v13H37.5V47.08h6.3L54.57,61.83,65.42,47.08h6.21v32.4H64.26V66.55c0-2.65.08-5.72.08-8l-.08-.08c-1.57,2.32-3.23,4.64-4.89,7l-3.81,5.14H53.41Z"/><path class="c" d="M86.14,47.08H92.6l12.26,32.4h-7L95.42,72H83.16l-2.49,7.46H73.88Zm-.91,20.05h8.12l-1.24-3.65c-.91-2.57-2-5.8-2.73-8.2h-.08l-2.82,8.45Z"/><path class="c" d="M108.1,47.08h9.53c3.65,0,7,.5,9.45,2.15,2.24,1.49,3.07,3.15,3.07,6.88,0,4.14-1.82,7.46-5.88,8.87L133,79.48h-7.71l-7.71-12.76h-3V79.48H108V47.08Zm10,14.25a9.91,9.91,0,0,0,4.23-.75,3.44,3.44,0,0,0,1.74-3.23,3.18,3.18,0,0,0-1.74-3.15,10.75,10.75,0,0,0-5-.83h-2.57v8h3.31Z"/><path class="c" d="M145.88,47.08h6.55l12.43,32.4h-7.21L155.17,72H142.74l-2.49,7.46h-7Zm-1,20.05h8.29l-1.24-3.65c-.91-2.57-2-5.8-2.82-8.2H149c-.83,2.49-1.91,5.72-2.9,8.45Z"/><path class="c" d="M182.26,53.38l-.08-.08H168.84l-2.32-6.21h27.43l.08.08-15.33,26,.08.08H193.7v6.21H167.1L167,79.4Z"/><path class="c" d="M210.35,53.38l-.08-.08H197.43l-2.32-6.21h26.43l.08.08-14.75,26,.08.08h14.34v6.21h-25.6l-.08-.08Z"/><path class="c" d="M225.1,47.08h7.13v32.4H225.1Z"/></svg>