<?xml version="1.0" encoding="utf-8"?>
<!-- Generator: Adobe Illustrator 28.3.0, SVG Export Plug-In . SVG Version: 6.00 Build 0)  -->
<svg version="1.1" id="Layer_1" xmlns="http://www.w3.org/2000/svg" xmlns:xlink="http://www.w3.org/1999/xlink" x="0px" y="0px"
	 viewBox="0 0 386.1 67.9" style="enable-background:new 0 0 386.1 67.9;" xml:space="preserve">
<style type="text/css">
	.st0{clip-path:url(#SVGID_00000144332572795445792520000011863049069877405102_);}
	.st1{fill:#5A5654;}
</style>
<g>
	<defs>
		<polyline id="SVGID_1_" points="386.1,109 386.1,0 0,0 0,109 		"/>
	</defs>
	<clipPath id="SVGID_00000049919476879001315010000007052459362966241700_">
		<use xlink:href="#SVGID_1_"  style="overflow:visible;"/>
	</clipPath>
	<g style="clip-path:url(#SVGID_00000049919476879001315010000007052459362966241700_);">
		<path class="st1" d="M56.8,40.9V7.4c0-3.4,0.7-6.4,2.7-7.3H43.8L30.3,29.7L16.5,0.2L2.1,0.2H0.1C2,1,2.7,3.7,2.8,6.8v33.3
			c0,3.7-0.7,7.1-2.8,8h8.2c-2.1-0.9-2.7-3.9-2.8-7.2V5.7l18.9,40.3l1,2.2L43.8,6.9v33.2c0,3.7-0.7,7.1-2.8,8h18.5
			C57.5,47.2,56.8,44.2,56.8,40.9 M81.5,41c-2.1,5.4-8.3,2.1-8.3-1.8c0-1,0-7.2,8.3-11.1V41L81.5,41z M92.1,48.2h2.6
			c-1.8-0.8-2.5-3.6-2.6-6.6V27.4c-0.2-7.6-6.1-11.5-13.9-11.6c-11.4,0-16,5.6-16,10.3c0,1,0.2,1.8,0.7,2.4c0.8,1.4,2.4,2.4,4.1,2.4
			c2.7,0,4.8-2.2,4.8-4.9c0-2.2-1.5-4.1-3.6-4.6c-0.4-1.8,2.7-3.9,6.1-3.9s6.6,3.2,7.1,9.3c-6.6,3.5-19.1,7.8-19.1,15.4
			c0,10,13.8,8.7,19.1,1v0.4c0,2.6,2,4.6,4.6,4.6C88.9,48.2,91.9,48.2,92.1,48.2 M133.9,48.1h2.6c-1.9-0.8-2.5-3.5-2.6-6.7V30.7
			c0-20.8-18.8-15.4-23.3-10v-5.1H97.5c1.6,0.7,2.2,3.3,2.2,6.1V42c0,1.3-0.1,2.5-0.4,3.6c-0.6,1.2-1.2,2-1.5,2.3
			c-0.1,0-0.2,0.1-0.2,0.2h15.7c-1.5-0.6-2.2-2.6-2.5-4.9c-0.1-0.6-0.1-1.2-0.1-1.8V23c2.7-5.4,12.7-4.8,12.7,3.2v15.2
			c-0.1,3.1-0.8,5.9-2.6,6.7L133.9,48.1L133.9,48.1z M175.3,48.1h2.6c-1.9-0.8-2.5-3.5-2.6-6.7V30.7c0-20.8-18.8-15.4-23.3-10v-5.1
			h-13.1c1.6,0.7,2.2,3.3,2.2,6.1V42c0,1.3-0.1,2.5-0.4,3.6c-0.6,1.2-1.2,2-1.5,2.3c-0.1,0-0.2,0.1-0.2,0.2h15.7
			c-1.5-0.6-2.2-2.6-2.5-4.9c-0.1-0.6-0.1-1.2-0.1-1.8V23c2.7-5.4,12.7-4.8,12.7,3.2v15.2c-0.1,3.1-0.8,5.9-2.6,6.7L175.3,48.1
			L175.3,48.1z M193.9,5.9c0-3.2-2.6-5.9-5.9-5.9s-5.9,2.7-5.9,5.9s2.6,5.9,5.9,5.9S193.9,9.1,193.9,5.9 M180.8,48.1h15.5
			c-1.8-0.7-2.4-3.6-2.4-6.7V15.6h-13.1c1.6,0.7,2.2,3.3,2.2,6.1V42C183,44.8,182.4,47.4,180.8,48.1 M251.5,27.9
			c0-2.8,0.9-10.7,7.6-10.7s7.6,8,7.6,10.7s-0.9,10.6-7.6,10.6S251.5,30.6,251.5,27.9 M245.6,37.1c0.1-0.3,0.1-0.3,0.2-0.5
			c3.2,2.2,7.6,3.3,13.4,3.3c11.2,0,18.1-4.7,18.1-12c0-6.6-5.5-11-14.7-11.9c1.7-3.1,5.9-1.5,7.6-1c0.1,0,0.2,0,0.2,0
			c0.4,0.1,0.8,0.2,1.2,0.2c2.8,0,5-2.3,5-5s-2.2-5-5-5c-0.8,0-1.6,0.2-2.3,0.6c-2.9,1.2-5.8,5.2-8.4,10.1h-1.8
			c-11.4,0-18.1,4.6-18.1,12c0,3.4,1.2,6.1,3.8,8.1c-2.6,2.7-6.5,9-1.6,14.5c6,6.6,25,1.7,25,8.5c0,4.4-11.2,6.4-16.2,6.6
			c-12.2,0.1-16.4-3.3-16.4-10.4V30.6c0-20.3-18.2-15.4-23-10.1v-4.8h-13.1c1.6,0.7,2.2,3.3,2.2,6.1v20.3c0,2.8-0.6,5.3-2.2,6.1
			h15.5c-1.8-0.7-2.4-3.6-2.4-6.7V22.6c3-4.9,12.5-4.2,12.5,3.6v23.6c0,13,16,17.1,25.5,17.1c2.2,0,23.5-0.9,26.8-12.6
			C282.2,36.6,243.3,51.2,245.6,37.1 M293,17h9v-1.4h-9V3.2c-0.2,0.5-0.4,1-0.6,1.5c-3.5,8.3-8.8,10.9-12.6,10.9V17
			c0,0,2.6,0.2,2.6,5.6v16.5c0.2,13.6,17.6,11.6,20.1,6.8c-2,1.5-9.6,2.5-9.6-4.4l0.1-12.4L293,17L293,17z M328,32.7
			c0,4-0.9,15.5-7.6,15.5s-7.6-11.5-7.6-15.5c0.1-3.9,0.9-15.4,7.6-15.4S328,28.9,328,32.7 M338.5,32.8v-0.2
			c0-9.7-6.8-16.6-18.1-16.6s-18.1,6.8-18.1,16.6v0.2c0.1,9.9,6.8,16.7,18.1,16.7S338.5,42.7,338.5,32.8 M377,48.1h2.6
			c-1.9-0.8-2.5-3.5-2.6-6.7V30.7c0-20.8-18.9-15.4-23.3-9.9v-5.1h-13.1c1.6,0.7,2.2,3.3,2.2,6.1v20.3c0,2.8-0.6,5.3-2.2,6.1h15.5
			c-1.8-0.7-2.4-3.6-2.4-6.7V23.1c2.7-5.4,12.8-4.9,12.8,3.2v15.2c-0.1,3.1-0.8,5.9-2.6,6.7H377L377,48.1z M383.7,43.2
			c0,0.2-0.2,0.4-0.5,0.4h-0.6v-0.8h0.6C383.5,42.8,383.7,43,383.7,43.2L383.7,43.2z M384.7,45.3l-0.8-1.1c0.4-0.2,0.6-0.5,0.6-1v0
			c0-0.3-0.1-0.5-0.3-0.7c-0.2-0.2-0.6-0.4-1.1-0.4h-1.5v3.2h0.9v-1h0.4l0.6,1L384.7,45.3L384.7,45.3z M385.7,43.8
			c0,1.5-1.1,2.7-2.7,2.7s-2.6-1.2-2.6-2.7v0c0-1.5,1.1-2.7,2.7-2.7S385.7,42.3,385.7,43.8L385.7,43.8z M386.1,43.8L386.1,43.8
			c0-1.7-1.3-3-3-3s-3,1.4-3,3v0c0,1.6,1.3,3,3,3S386.1,45.4,386.1,43.8"/>
	</g>
</g>
</svg>
