<?xml version="1.0" encoding="UTF-8"?> <svg xmlns="http://www.w3.org/2000/svg" width="200" height="260" viewBox="0 0 200 260" fill="none"><rect width="200" height="260" fill="#BCCF00"></rect><path d="M32.4246 207.536C32.7963 208.182 33.2764 208.711 33.8641 209.122C34.4516 209.533 35.1271 209.837 35.8911 210.033C36.6548 210.229 37.4478 210.326 38.2703 210.326C38.8577 210.326 39.4748 210.259 40.1207 210.121C40.7669 209.984 41.3547 209.768 41.8834 209.474C42.4121 209.181 42.8527 208.79 43.2051 208.299C43.5579 207.81 43.7341 207.193 43.7341 206.449C43.7341 205.196 42.9015 204.256 41.2372 203.629C39.5717 203.003 37.2516 202.376 34.2753 201.749C33.0609 201.475 31.8758 201.152 30.721 200.78C29.5653 200.408 28.5373 199.918 27.6366 199.311C26.7351 198.704 26.0109 197.94 25.463 197.019C24.914 196.1 24.6403 194.973 24.6403 193.642C24.6403 191.684 25.0224 190.078 25.7858 188.824C26.5498 187.571 27.5578 186.582 28.8118 185.857C30.0646 185.133 31.4745 184.624 33.0414 184.33C34.6078 184.036 36.2139 183.889 37.8591 183.889C39.5039 183.889 41.0994 184.046 42.6471 184.359C44.1939 184.673 45.5744 185.202 46.7894 185.945C48.0028 186.69 49.0113 187.678 49.8148 188.912C50.6172 190.146 51.0968 191.703 51.2541 193.583H43.3229C43.2051 191.977 42.5977 190.89 41.5013 190.322C40.4046 189.755 39.1122 189.47 37.6241 189.47C37.1541 189.47 36.6444 189.5 36.0964 189.558C35.5477 189.617 35.0484 189.745 34.5984 189.94C34.1477 190.137 33.7658 190.42 33.4526 190.792C33.1389 191.165 32.9827 191.665 32.9827 192.29C32.9827 193.035 33.2564 193.642 33.8054 194.111C34.3533 194.581 35.0684 194.963 35.9498 195.257C36.8307 195.551 37.8387 195.815 38.9752 196.05C40.1106 196.285 41.2663 196.54 42.4415 196.814C43.6551 197.089 44.8401 197.422 45.9961 197.813C47.151 198.205 48.1787 198.724 49.0805 199.37C49.9806 200.016 50.705 200.819 51.2541 201.778C51.802 202.739 52.0768 203.923 52.0768 205.333C52.0768 207.33 51.6743 209.004 50.8722 210.356C50.069 211.707 49.0215 212.794 47.7288 213.617C46.4367 214.439 44.9576 215.017 43.2933 215.35C41.6284 215.682 39.9344 215.849 38.2113 215.849C36.4492 215.849 34.725 215.673 33.0414 215.32C31.357 214.968 29.859 214.38 28.5471 213.558C27.2347 212.735 26.1578 211.648 25.3159 210.297C24.4734 208.946 24.0136 207.252 23.9354 205.215H31.8668C31.8668 206.117 32.0521 206.89 32.4246 207.536Z" fill="#1D1D1B"></path><path d="M73.4608 200.222C73.1078 200.536 72.6675 200.78 72.139 200.956C71.6103 201.132 71.0415 201.279 70.4354 201.396C69.8271 201.514 69.1913 201.612 68.5254 201.69C67.8597 201.769 67.194 201.867 66.5283 201.984C65.9011 202.102 65.2842 202.258 64.6779 202.454C64.0698 202.65 63.5411 202.915 63.0915 203.247C62.6404 203.58 62.2778 204.002 62.0044 204.51C61.7302 205.02 61.5929 205.666 61.5929 206.449C61.5929 207.193 61.7302 207.82 62.0044 208.329C62.2778 208.838 62.6509 209.239 63.1211 209.533C63.5911 209.827 64.139 210.033 64.7662 210.15C65.3916 210.268 66.038 210.326 66.7048 210.326C68.35 210.326 69.6218 210.053 70.5235 209.504C71.4234 208.956 72.0891 208.299 72.5209 207.536C72.9516 206.772 73.2154 205.999 73.3142 205.215C73.4108 204.432 73.4608 203.805 73.4608 203.335V200.222ZM54.1907 194.053C54.3082 192.095 54.7977 190.469 55.6596 189.177C56.5205 187.884 57.6177 186.847 58.9494 186.063C60.2808 185.28 61.779 184.722 63.4442 184.389C65.1086 184.056 66.7825 183.889 68.4669 183.889C69.994 183.889 71.5414 183.998 73.1078 184.212C74.6744 184.428 76.1046 184.85 77.3967 185.475C78.6897 186.102 79.7468 186.974 80.569 188.09C81.3919 189.206 81.8034 190.685 81.8034 192.525V208.329C81.8034 209.7 81.8811 211.012 82.0384 212.265C82.1938 213.519 82.4683 214.459 82.8606 215.085H74.401C74.2437 214.615 74.1161 214.136 74.0192 213.646C73.9203 213.156 73.8523 212.657 73.813 212.148C72.4813 213.519 70.9139 214.478 69.1134 215.027C67.311 215.574 65.4712 215.849 63.5911 215.849C62.1417 215.849 60.79 215.673 59.5374 215.32C58.2834 214.968 57.187 214.419 56.2471 213.675C55.3069 212.932 54.5726 211.992 54.0442 210.855C53.5152 209.72 53.2508 208.368 53.2508 206.802C53.2508 205.079 53.5539 203.658 54.1616 202.542C54.7683 201.426 55.5512 200.536 56.5115 199.869C57.4706 199.204 58.5675 198.704 59.8012 198.371C61.0357 198.039 62.2778 197.775 63.5315 197.578C64.7855 197.382 66.0191 197.225 67.2333 197.108C68.4469 196.99 69.5241 196.814 70.4642 196.579C71.4042 196.344 72.1475 196.002 72.6974 195.551C73.245 195.101 73.4992 194.445 73.4608 193.583C73.4608 192.682 73.3142 191.967 73.0205 191.439C72.7259 190.91 72.3348 190.498 71.8453 190.205C71.3553 189.911 70.7873 189.715 70.142 189.617C69.4952 189.52 68.7988 189.47 68.0554 189.47C66.4103 189.47 65.1182 189.823 64.1782 190.528C63.238 191.233 62.6893 192.408 62.5331 194.053H54.1907Z" fill="#1D1D1B"></path><path d="M94.4924 215.085H86.1497V173.138H94.4924V215.085Z" fill="#1D1D1B"></path><path d="M106.477 203.482C106.712 204.638 107.113 205.676 107.681 206.596C108.249 207.517 109.003 208.251 109.943 208.799C110.883 209.348 112.058 209.621 113.468 209.621C114.878 209.621 116.062 209.348 117.023 208.799C117.982 208.251 118.745 207.517 119.314 206.596C119.881 205.676 120.283 204.638 120.518 203.482C120.753 202.328 120.871 201.142 120.871 199.928C120.871 198.714 120.753 197.519 120.518 196.344C120.283 195.169 119.881 194.132 119.314 193.231C118.745 192.33 117.982 191.595 117.023 191.027C116.062 190.46 114.878 190.175 113.468 190.175C112.058 190.175 110.883 190.46 109.943 191.027C109.003 191.595 108.249 192.33 107.681 193.231C107.113 194.132 106.712 195.169 106.477 196.344C106.242 197.519 106.124 198.714 106.124 199.928C106.124 201.142 106.242 202.328 106.477 203.482ZM98.8983 193.319C99.6417 191.341 100.699 189.657 102.071 188.266C103.441 186.876 105.087 185.798 107.006 185.035C108.924 184.271 111.079 183.889 113.468 183.889C115.856 183.889 118.021 184.271 119.96 185.035C121.899 185.798 123.553 186.876 124.924 188.266C126.295 189.657 127.352 191.341 128.097 193.319C128.84 195.297 129.213 197.499 129.213 199.928C129.213 202.357 128.84 204.55 128.097 206.508C127.352 208.467 126.295 210.141 124.924 211.531C123.553 212.921 121.899 213.989 119.96 214.733C118.021 215.476 115.856 215.849 113.468 215.849C111.079 215.849 108.924 215.476 107.006 214.733C105.087 213.989 103.441 212.921 102.071 211.531C100.699 210.141 99.6417 208.467 98.8983 206.508C98.1541 204.55 97.7824 202.357 97.7824 199.928C97.7824 197.499 98.1541 195.297 98.8983 193.319Z" fill="#1D1D1B"></path><path d="M140.199 184.712V188.942H140.375C141.433 187.179 142.803 185.897 144.487 185.094C146.171 184.291 147.895 183.889 149.657 183.889C151.89 183.889 153.72 184.193 155.15 184.8C156.58 185.407 157.706 186.25 158.528 187.326C159.351 188.403 159.928 189.715 160.262 191.262C160.594 192.81 160.761 194.523 160.761 196.403V215.085H152.418V197.93C152.418 195.424 152.027 193.553 151.244 192.32C150.46 191.086 149.07 190.469 147.073 190.469C144.8 190.469 143.155 191.145 142.138 192.496C141.118 193.847 140.61 196.07 140.61 199.164V215.085H132.267V184.712H140.199Z" fill="#1D1D1B"></path><path d="M173.333 215.085H164.99V184.712H173.333V215.085ZM165.45 181.211L168.183 173.329L176.065 176.062L173.333 183.944L165.45 181.211Z" fill="#1D1D1B"></path><path d="M60.1108 233.08C60.4556 233.352 60.8638 233.487 61.3357 233.487C61.9102 233.487 62.4667 233.355 63.005 233.089C63.9122 232.648 64.366 231.927 64.366 230.924V229.611C64.1667 229.738 63.9103 229.844 63.5963 229.929C63.2825 230.014 62.9745 230.075 62.6728 230.111L61.686 230.238C61.0944 230.316 60.6494 230.44 60.3513 230.609C59.8462 230.893 59.5937 231.345 59.5937 231.967C59.5937 232.437 59.766 232.809 60.1108 233.08ZM63.5496 228.668C63.9246 228.62 64.1755 228.463 64.3026 228.197C64.3751 228.052 64.4113 227.842 64.4113 227.569C64.4113 227.01 64.2137 226.605 63.8181 226.353C63.4228 226.101 62.857 225.975 62.1205 225.975C61.2695 225.975 60.6656 226.206 60.3096 226.668C60.1106 226.924 59.9807 227.303 59.9203 227.808H58.396C58.4262 226.607 58.8143 225.771 59.5604 225.301C60.3066 224.831 61.1721 224.596 62.1568 224.596C63.2984 224.596 64.226 224.814 64.9389 225.249C65.6458 225.685 65.9991 226.362 65.9991 227.282V232.88C65.9991 233.049 66.0339 233.186 66.1034 233.288C66.1728 233.391 66.3197 233.442 66.5434 233.442C66.6162 233.442 66.6977 233.438 66.7886 233.428C66.8791 233.419 66.9761 233.406 67.0787 233.388V234.594C66.8248 234.667 66.631 234.712 66.4981 234.73C66.365 234.749 66.1835 234.758 65.9538 234.758C65.3913 234.758 64.9831 234.558 64.7289 234.159C64.5958 233.947 64.5022 233.648 64.4475 233.261C64.1148 233.696 63.6372 234.074 63.0143 234.395C62.3912 234.715 61.7046 234.876 60.9547 234.876C60.0532 234.876 59.3169 234.602 58.7454 234.055C58.1736 233.509 57.8881 232.825 57.8881 232.003C57.8881 231.103 58.1692 230.405 58.7317 229.91C59.2942 229.415 60.032 229.109 60.9456 228.995L63.5496 228.668Z" fill="#1D1D1B"></path><path d="M68.7208 224.832H70.2724V226.511C70.3995 226.184 70.711 225.786 71.2068 225.317C71.7028 224.849 72.2744 224.614 72.9217 224.614C72.9518 224.614 73.0035 224.618 73.0759 224.623C73.1487 224.629 73.2725 224.641 73.4479 224.66V226.383C73.3513 226.365 73.262 226.353 73.1802 226.347C73.0987 226.341 73.0092 226.338 72.9126 226.338C72.0899 226.338 71.458 226.603 71.0163 227.132C70.5749 227.661 70.3542 228.271 70.3542 228.96V234.549H68.7208V224.832Z" fill="#1D1D1B"></path><path d="M75.1899 222.119H76.8411V224.832H78.3926V226.166H76.8411V232.507C76.8411 232.847 76.9559 233.073 77.1859 233.188C77.313 233.255 77.5246 233.288 77.8211 233.288C77.8996 233.288 77.9844 233.286 78.075 233.282C78.1659 233.278 78.2716 233.268 78.3926 233.251V234.549C78.2052 234.603 78.01 234.643 77.8074 234.667C77.6048 234.691 77.3855 234.703 77.1497 234.703C76.3876 234.703 75.8704 234.508 75.5981 234.118C75.3261 233.728 75.1899 233.221 75.1899 232.598V226.166H73.8745V224.832H75.1899V222.119Z" fill="#1D1D1B"></path><path d="M91.2147 232.26C91.6125 231.441 91.8113 230.53 91.8113 229.527C91.8113 228.621 91.6677 227.884 91.3805 227.317C90.9262 226.422 90.1425 225.975 89.0302 225.975C88.0433 225.975 87.3258 226.356 86.8772 227.117C86.4287 227.878 86.2044 228.797 86.2044 229.872C86.2044 230.905 86.4287 231.766 86.8772 232.455C87.3258 233.143 88.0373 233.487 89.0123 233.487C90.0829 233.487 90.817 233.078 91.2147 232.26ZM92.2288 225.802C93.0875 226.636 93.5171 227.863 93.5171 229.482C93.5171 231.047 93.1385 232.341 92.3817 233.362C91.6251 234.383 90.4508 234.894 88.8592 234.894C87.5319 234.894 86.4778 234.442 85.6968 233.539C84.9161 232.635 84.5258 231.422 84.5258 229.899C84.5258 228.267 84.9372 226.968 85.76 226.001C86.5829 225.034 87.6881 224.551 89.0755 224.551C90.3187 224.551 91.3698 224.968 92.2288 225.802Z" fill="#1D1D1B"></path><path d="M96.2844 221.865C96.6654 221.309 97.4003 221.03 98.489 221.03C98.5916 221.03 98.6976 221.033 98.8066 221.04C98.9153 221.046 99.0394 221.055 99.1785 221.067V222.555C99.0073 222.542 98.8834 222.535 98.8069 222.532C98.7303 222.529 98.6586 222.527 98.5914 222.527C98.0898 222.527 97.7898 222.656 97.6921 222.913C97.5944 223.17 97.5455 223.825 97.5455 224.877H99.1785V226.166H97.5455V234.549H95.9303V226.166H94.5786V224.877H95.9303V223.353C95.9544 222.676 96.0725 222.18 96.2844 221.865Z" fill="#1D1D1B"></path><path d="M106.609 221.865C106.99 221.309 107.725 221.03 108.814 221.03C108.917 221.03 109.023 221.033 109.131 221.04C109.24 221.046 109.364 221.055 109.503 221.067V222.555C109.332 222.542 109.208 222.535 109.132 222.532C109.055 222.529 108.983 222.527 108.916 222.527C108.415 222.527 108.115 222.656 108.017 222.913C107.919 223.17 107.87 223.825 107.87 224.877H109.503V226.166H107.87V234.549H106.255V226.166H104.903V224.877H106.255V223.353C106.28 222.676 106.397 222.18 106.609 221.865Z" fill="#1D1D1B"></path><path d="M112.643 224.832V231.283C112.643 231.779 112.719 232.184 112.872 232.498C113.155 233.079 113.682 233.369 114.454 233.369C115.562 233.369 116.315 232.861 116.716 231.845C116.934 231.301 117.043 230.554 117.043 229.604V224.832H118.676V234.549H117.134L117.152 233.116C116.944 233.484 116.686 233.796 116.377 234.05C115.766 234.558 115.024 234.812 114.151 234.812C112.792 234.812 111.866 234.349 111.374 233.424C111.107 232.928 110.973 232.266 110.973 231.437V224.832H112.643Z" fill="#1D1D1B"></path><path d="M121.389 224.832H122.94V226.511C123.068 226.184 123.379 225.786 123.875 225.317C124.371 224.849 124.942 224.614 125.59 224.614C125.62 224.614 125.671 224.618 125.744 224.623C125.816 224.629 125.94 224.641 126.116 224.66V226.383C126.019 226.365 125.93 226.353 125.848 226.347C125.766 226.341 125.677 226.338 125.581 226.338C124.758 226.338 124.126 226.603 123.684 227.132C123.243 227.661 123.022 228.271 123.022 228.96V234.549H121.389V224.832Z" fill="#1D1D1B"></path><path d="M127.531 224.832H129.083V226.211C129.542 225.643 130.029 225.234 130.544 224.986C131.057 224.738 131.629 224.614 132.258 224.614C133.637 224.614 134.569 225.095 135.053 226.057C135.319 226.583 135.452 227.336 135.452 228.316V234.549H133.792V228.425C133.792 227.832 133.704 227.354 133.528 226.991C133.238 226.386 132.712 226.084 131.95 226.084C131.562 226.084 131.245 226.123 130.997 226.202C130.549 226.335 130.156 226.601 129.818 227.001C129.545 227.321 129.369 227.652 129.287 227.994C129.205 228.336 129.164 228.824 129.164 229.459V234.549H127.531V224.832Z" fill="#1D1D1B"></path><path d="M137.865 224.877H139.525V234.549H137.865V224.877ZM137.865 221.221H139.525V223.072H137.865V221.221Z" fill="#1D1D1B"></path><path d="M142.32 222.119H143.971V224.832H145.523V226.166H143.971V232.507C143.971 232.847 144.086 233.073 144.316 233.188C144.443 233.255 144.655 233.288 144.951 233.288C145.03 233.288 145.115 233.286 145.205 233.282C145.296 233.278 145.402 233.268 145.523 233.251V234.549C145.335 234.603 145.14 234.643 144.937 234.667C144.735 234.691 144.516 234.703 144.28 234.703C143.518 234.703 143.001 234.508 142.728 234.118C142.456 233.728 142.32 233.221 142.32 232.598V226.166H141.005V224.832H142.32V222.119Z" fill="#1D1D1B"></path><path d="M148.789 224.832V231.283C148.789 231.779 148.866 232.184 149.019 232.498C149.301 233.079 149.829 233.369 150.6 233.369C151.708 233.369 152.462 232.861 152.863 231.845C153.08 231.301 153.189 230.554 153.189 229.604V224.832H154.822V234.549H153.28L153.298 233.116C153.09 233.484 152.832 233.796 152.523 234.05C151.912 234.558 151.17 234.812 150.298 234.812C148.939 234.812 148.013 234.349 147.52 233.424C147.253 232.928 147.12 232.266 147.12 231.437V224.832H148.789Z" fill="#1D1D1B"></path><path d="M157.535 224.832H159.087V226.511C159.214 226.184 159.525 225.786 160.021 225.317C160.517 224.849 161.089 224.614 161.736 224.614C161.766 224.614 161.818 224.618 161.89 224.623C161.963 224.629 162.087 224.641 162.262 224.66V226.383C162.165 226.365 162.076 226.353 161.994 226.347C161.913 226.341 161.824 226.338 161.727 226.338C160.904 226.338 160.272 226.603 159.831 227.132C159.389 227.661 159.168 228.271 159.168 228.96V234.549H157.535V224.832Z" fill="#1D1D1B"></path><path d="M170.265 228.915C170.198 228.207 170.046 227.642 169.806 227.218C169.362 226.432 168.621 226.039 167.583 226.039C166.84 226.039 166.216 226.309 165.712 226.851C165.208 227.392 164.941 228.08 164.911 228.915H170.265ZM169.68 225.1C170.323 225.423 170.813 225.842 171.149 226.356C171.474 226.846 171.69 227.418 171.799 228.071C171.895 228.519 171.943 229.232 171.943 230.212H164.875C164.905 231.201 165.136 231.994 165.568 232.591C166 233.189 166.67 233.487 167.576 233.487C168.422 233.487 169.097 233.205 169.601 232.64C169.883 232.312 170.083 231.932 170.201 231.501H171.807C171.765 231.857 171.624 232.255 171.385 232.694C171.146 233.132 170.879 233.491 170.585 233.769C170.093 234.253 169.484 234.579 168.758 234.749C168.367 234.845 167.926 234.894 167.434 234.894C166.232 234.894 165.213 234.454 164.377 233.574C163.542 232.694 163.124 231.461 163.124 229.877C163.124 228.316 163.545 227.049 164.386 226.075C165.228 225.101 166.328 224.614 167.687 224.614C168.372 224.614 169.036 224.776 169.68 225.1Z" fill="#1D1D1B"></path></svg> 