<svg xmlns="http://www.w3.org/2000/svg" viewBox="0 0 310 140"><defs><style>.a{fill:none;}.b{fill:#c29419;}.c{fill:#231f20;}</style></defs><title>Cambria_orig_t</title><rect class="a" width="310" height="140"/><path class="b" d="M172.73,46a39.06,39.06,0,0,0-16.64-4.34,28.7,28.7,0,0,0-11.28,2.08,16.69,16.69,0,0,0-5.89,3.9,8.35,8.35,0,0,0-1.61,2.66h0l.15,0c.73-.16,3.56-.78,5.72.06a10.94,10.94,0,0,1,5.93,5.4c1.19,2.18,2.66,5.77,2.67,5.81a.63.63,0,0,0,0-.09l0,.08s0-.14-.08-.4c-.16-1.11-.44-4.25,1.77-6.47,2.37-2.37,7.34-1,7.39-1l0,0h0l-.2-.27c-.58-.87-2.28-3.52-1.78-5.6a4.1,4.1,0,0,1,2.53-3.12c2.08-.86,4.58-.24,5.78.05l.28.07c2.07.48,6.68,2.08,6.72,2.09l-.07,0,.08,0s-.55-.34-1.53-.84"/><path class="b" d="M148.27,37.06l0,0a27.41,27.41,0,0,1,6.49-3.29,57.77,57.77,0,0,1,11.62-2.54,76,76,0,0,1,14.73-.31l-.05,0h.05l-.16-.05a3,3,0,0,1-1.68-2.75c-.16-2.92,4.49-7.42,4.54-7.46l-.07,0,0,0-.76.43c-1.94,1.05-7,3.79-9.93,4.35-1.74.34-3.64.18-4-.92-.47-1.51.52-4.1.53-4.13l0,0v0l-1.58.92c-4.33,2.52-16.07,9.54-17.94,11.89A10,10,0,0,0,148.28,37Z"/><path class="b" d="M175.57,37a17.5,17.5,0,0,1,5.82-4.4h0l-1.07-.1a73.46,73.46,0,0,0-14.78.07c-8.27,1.18-10.75,2.34-13.37,3.56a18.61,18.61,0,0,0-5.66,3.92,3.9,3.9,0,0,0-1.16,2v0h0a32.43,32.43,0,0,1,14.1-1.47c6.85.8,15.05,4.87,15.13,4.91v0h0s-.07-.11-.16-.3A7.67,7.67,0,0,1,175.57,37"/><path class="b" d="M192.41,34.48c0,.12.34.59.34.59l.14.19a4,4,0,0,0,.36.51l.19.26a5.08,5.08,0,0,0,2.08,1.32v0h0l0-.16a43.21,43.21,0,0,1-.74-5.14,32.71,32.71,0,0,1-.06-4.69V27l0,0v0l-.14.15a43.28,43.28,0,0,1-3.84,3.49,19.67,19.67,0,0,1-3.8,2.6l0,0h0l.09.05a5.71,5.71,0,0,0,2.53.77,3,3,0,0,0,1.15-.09l.42-.1L191,34c-.37.67-1.54,3-1.54,3s-6.4-3.12-11,1.78A5.68,5.68,0,0,0,177,44.62c.48,1.4,2.41,3.4,5.79,3.19,4-.25,5.67-4,5.76-4.19l0,.07a3.56,3.56,0,0,1,.16,2.12,5.72,5.72,0,0,1-3.24,3.57c-2.11.86-5,1.45-10.45-.76l-1.15-.47a37.75,37.75,0,0,0-4.13-1.53l-.54-.16a17.56,17.56,0,0,0-5.14-.91c-1.23,0-2.58.19-3.29,1.62a3.51,3.51,0,0,0-.39,1.59,7.17,7.17,0,0,0,1.06,3.17A45.54,45.54,0,0,0,164,56l-.23-.1a16.45,16.45,0,0,0-4.66-1.31c-2.84-.27-4.09.14-5.17,1.68a8.1,8.1,0,0,0-.67,5.43A7.89,7.89,0,0,0,156.71,67l1.47.74-.06.12c-1.57,3.41-3.68,5.71-5.41,5.85-1.22.09-2.73-1.75-3.73-3a6.53,6.53,0,0,0-.93-1,2.1,2.1,0,0,0-2.57.4h0a3.87,3.87,0,0,1,1.22.68,1.62,1.62,0,0,1,.62,1.7l0,0c-.08-.13-.62-.61-2-.29-1.69.4-1.75,3.38-1.76,3.4l0,0v0l.05-.07a9.4,9.4,0,0,1,1.16-1.12c1.48-1.09,3.68,1.29,3.77,1.39a4.19,4.19,0,0,0-.62.2,4.84,4.84,0,0,0-2.51,2.65h0l.26-.08a40.64,40.64,0,0,1,11.09-1.37,30.57,30.57,0,0,1,6.67,1h0v0h0l-.11-.17A7.11,7.11,0,0,0,161.54,76a20.26,20.26,0,0,0-4.51-.93l.32-.16c.94-.45,3.48-1.76,4.35-2.36a7.85,7.85,0,0,0,2.17-1.92,5.44,5.44,0,0,0,.94-2.17,1.72,1.72,0,0,1,.82.47,2.27,2.27,0,0,1,.56,1.47v0l0,0v0s0-.11.08-.28a5,5,0,0,0-2.56-5.87,3.43,3.43,0,0,1-1.33-1.16,2.66,2.66,0,0,1,1.11-3.53,17.86,17.86,0,0,1,2-1.07,16.27,16.27,0,0,0,5.41,5.25,18,18,0,0,0,8.43,2,4.5,4.5,0,0,1,1.58,3,5.67,5.67,0,0,1-1.29,3.94,2.66,2.66,0,0,1-1.76,1c-1.22.09-2.73-1.75-3.73-3a6.54,6.54,0,0,0-.93-1,2.1,2.1,0,0,0-2.57.4h0a3.87,3.87,0,0,1,1.22.68,1.61,1.61,0,0,1,.62,1.7l0,0c-.08-.13-.62-.61-2-.29-1.69.4-1.75,3.38-1.75,3.4l0,0v0l.05-.07A9.09,9.09,0,0,1,170,74.43c1.48-1.09,3.68,1.29,3.77,1.39a4.16,4.16,0,0,0-.62.2,4.83,4.83,0,0,0-2.51,2.65h0l.26-.08A40.63,40.63,0,0,1,182,77.24a30.55,30.55,0,0,1,6.67,1h0v0h0l-.11-.16A7.17,7.17,0,0,0,186.65,76a20.65,20.65,0,0,0-4.53-.94l.25-.21a9.39,9.39,0,0,0,3.18-5.3,3.63,3.63,0,0,0,0-.54,6.74,6.74,0,0,0-1-3.23l.11,0a9.9,9.9,0,0,1,2.6,1.06A8.72,8.72,0,0,1,188.67,68s0,0,0,0h0a1.78,1.78,0,0,0,0-.25c-.09-.62-.58-2.22-2.94-3.38-1-.5-6.16-3.12-8.17-5.9l.26,0a27.41,27.41,0,0,0,5.5.41A13.28,13.28,0,0,0,190,57.05a10.56,10.56,0,0,0,4.29-5.13,13.17,13.17,0,0,0,1-4.87,13.74,13.74,0,0,0-.6-3.88,12.93,12.93,0,0,0-3.6-5.34l1.32-3.38v0M179.13,60.19l.17.15-.17-.15m5.41-15.94a3.22,3.22,0,0,1-2.39,0,1.66,1.66,0,0,1-.88-.94,1.86,1.86,0,0,1,.18-1.49,2.71,2.71,0,0,1,1.77-1.32,4.21,4.21,0,0,1,3.86,1.32s-1.1,2-2.53,2.48M194.69,27s0,0,0,0v0m-7.77,6.22.07,0-.05,0h0M147.38,72.48l0,.07h0l0-.06m18.81-2.13a.5.5,0,0,0,0-.06s0,0,0,0v0m6.3,2.13,0,.07h0l0-.06m6.37-12.53a9.87,9.87,0,0,1-1.35-1.48h0a9.85,9.85,0,0,0,1.32,1.47"/><path class="b" d="M141.16,68.06a8.75,8.75,0,0,0,.89-3.33h0a13.49,13.49,0,0,0,4.63.08,20.87,20.87,0,0,0,4.28-1.2c0-.12-2.51-8.88-7-11.46-3.59-2.06-8.45-.14-8.62-.07,0,0,0-.08,0-.15A12.78,12.78,0,0,1,137.76,47a17.94,17.94,0,0,1,5.11-3.89l0,0h0l0,0c-.19-.16-.89-.76-.34-2.42.79-2.4,3.87-3,3.9-3l0,0h0l-.1-.06a2.5,2.5,0,0,1-.9-2.78A3.58,3.58,0,0,1,148,32.5c.13,0,.14,0,.14-.07-.7-.57-1.75-1.69-1.07-3,.55-1.05,2.17-1.33,2.78-1.43.21,0,.24,0,.25-.07a12.57,12.57,0,0,0-2.34-1.69l-.48-.3a2.33,2.33,0,0,1-1.07-1.73,1.09,1.09,0,0,1,.54-1,7.93,7.93,0,0,0,2.59-2.82h0a2.27,2.27,0,0,1-.37.07,7.38,7.38,0,0,1-2.07-.22l0-.07c.2-.35.79-1.57.63-1.7s-.13,0-.16,0a10,10,0,0,1-2.84.76l-1.56.31a5.5,5.5,0,0,0-2.82,1.48s-4.49-1.25-6-1.12-2.46,2-2.47,2.06a15.27,15.27,0,0,0-4.21.08,6.49,6.49,0,0,0-3.05,1.34c0,.06.06.06.13,0a11.58,11.58,0,0,1,3.55.34v0a1.37,1.37,0,0,0-.14.67,2.06,2.06,0,0,0,.27,1c.35.63,1.38.81,2.44.41a2.39,2.39,0,0,0,.94-.7,1.51,1.51,0,0,1,1.45-.63,1.56,1.56,0,0,1,1.45,1.32s-5.49,1.37-8.19,1a30.53,30.53,0,0,1-3.07-.53h0s.34-.9.34-.9h0a8.85,8.85,0,0,1-2.38,0,6,6,0,0,1-3.19-1v0h0l0,.17A6.36,6.36,0,0,0,120,27.68,11.55,11.55,0,0,0,124,30h0v0h0l-.06-.11c-.16-.37-.68-1.41-.72-1.49l.07,0a14.4,14.4,0,0,0,2.5.4,9.68,9.68,0,0,0,3.75-.29l0,0a2.66,2.66,0,0,0-.48,1.3.9.9,0,0,0,0,.16,2.18,2.18,0,0,0,.45,1.12,1.86,1.86,0,0,1,.39.92.72.72,0,0,1,0,.2,1.93,1.93,0,0,0-.07.55,7.29,7.29,0,0,0,.61,2.41v0h0l0-.11c.15-.34.51-1.35.51-1.35a8.32,8.32,0,0,1,1.19-2.25l0,.05c.08.25.48,1.27.48,1.27v0s0,0,0-.08a1.77,1.77,0,0,1,.94-1.24,7.35,7.35,0,0,1,3.18-.93l-.43.56c-1.49,1.92-6.29,8.3-7.85,11.42A12.52,12.52,0,0,0,127.38,48a17.58,17.58,0,0,0,.33,3.44l-.08,0a7.48,7.48,0,0,1-2.95-1.72c-.77-.87-.91-3.25-1-5.36l-.16-2.11a5.42,5.42,0,0,0-2.15-3.42,13.66,13.66,0,0,0,.81-2.31,3.36,3.36,0,0,0,.1-.85,6,6,0,0,0-.3-1.83,1.73,1.73,0,0,0,0,.17l0-.14s0,0,0,0v0a.3.3,0,0,1,0,0v0a1.1,1.1,0,0,1-.05.31,1.19,1.19,0,0,1-.85.74.75.75,0,0,1-.48,0c0-1.26-1-2.87-2.29-3a3.62,3.62,0,0,0-1.89.67h0l.07,0a4.16,4.16,0,0,1,1.84,1.19c.57.86.6,3.44.6,3.92v.06l-.06-.05a12.06,12.06,0,0,1-1.9-2.08,1.11,1.11,0,0,0-1.57-.32,2.43,2.43,0,0,0-.88.75,1.41,1.41,0,0,1,1.34.28A7.06,7.06,0,0,0,117.56,39c1.12,1,1.75,2.15,1.19,4.52s-3.43,2.91-3.46,2.92v0h0l.07.07a2.66,2.66,0,0,0,2.48.89c1.26-.38,2.64-2.3,2.8-2.52,0,.06,0,.19,0,.39.06,1.48.35,6.52.35,6.52.11,2.17,1.16,3.78,2.5,5.82l1.24,1.94a4.37,4.37,0,0,1,.68,2.3,5.12,5.12,0,0,1-1.34,3.28.16.16,0,0,0,0,0,.14.14,0,0,0,.05.11c.17.15.72,0,1.58-.39a7.81,7.81,0,0,0,1.78-1.21,7.13,7.13,0,0,1,2.76-1.6,3.49,3.49,0,0,1,3.58.93s.77,1.11-.8,4.65-3.7,5.86-5.46,6c-1.22.09-2.73-1.75-3.73-3a6.72,6.72,0,0,0-.93-1,2.1,2.1,0,0,0-2.57.4h0a3.91,3.91,0,0,1,1.22.68,1.62,1.62,0,0,1,.62,1.7l0,0c-.08-.13-.62-.61-2-.3-1.69.4-1.75,3.38-1.75,3.41l0,0v0l.05-.07a9.14,9.14,0,0,1,1.16-1.12c1.48-1.09,3.67,1.29,3.77,1.39a4,4,0,0,0-.63.21,4.84,4.84,0,0,0-2.51,2.65h0l.26-.08a40.65,40.65,0,0,1,11.09-1.36,30.66,30.66,0,0,1,6.68,1v0h0l-.11-.17A7.08,7.08,0,0,0,136.42,76a20.4,20.4,0,0,0-4.52-.93l.3-.2A20,20,0,0,0,137,70.51a9.32,9.32,0,0,0,1.41-4.64h0s.47.11,1.15,1.41a5.65,5.65,0,0,1,.73,2.33l0,0s0,0,0,0a10.41,10.41,0,0,0,.87-1.54m-4.73-45.13a1.39,1.39,0,0,1-1.31.72.92.92,0,0,1-.84-1h0s-.5-.29-.63-.36h.08c.4,0,1.77-.08,1.77-.08l.87.14a7,7,0,0,0,1.77.22l-1.71.31ZM118,24.58l.09.09-.09-.06v0m-2.68,21.9.13,0-.12,0h0m5.2-1.42.12-.17v0l-.12.15m1.74,27.42,0,.07h0l0-.06"/><path class="c" d="M46.64,118a12.39,12.39,0,0,1-3.91-9.57,12.92,12.92,0,0,1,3.62-8.83c1.94-1.94,4.89-3.46,9.87-3.46a27.67,27.67,0,0,1,4.69.39,28.22,28.22,0,0,0,3.3.48c.36,0,.42.16.42.36s-.1.65-.16,1.81-.06,2.85-.1,3.33-.1.68-.29.68-.26-.23-.26-.68a4.47,4.47,0,0,0-1.36-3.3A10.76,10.76,0,0,0,56,97.37c-4.3,0-6.31,1.26-7.44,2.36-2.36,2.27-2.91,5.14-2.91,8.44A11.68,11.68,0,0,0,57.31,120c2.43,0,4.34-.29,5.63-1.62a6.18,6.18,0,0,0,1.2-2.72c.06-.36.13-.48.32-.48s.23.23.23.48a33.47,33.47,0,0,1-.71,4.14c-.19.62-.26.68-.84.94a18.77,18.77,0,0,1-5.82.74c-4.85,0-8.12-1.2-10.67-3.49"/><path class="c" d="M137.38,117.89c.1.87.27,2.23,1.31,2.57a5.27,5.27,0,0,0,1.58.22c.12,0,.19,0,.19.12s-.22.22-.51.22c-.53,0-3.15-.07-4.05-.15-.56,0-.68-.12-.68-.24s0-.14.17-.17.15-.44.1-.88l-1.17-12.52h-.07l-5.95,12.62c-.51,1.07-.58,1.29-.8,1.29s-.29-.24-.75-1.12c-.63-1.19-2.72-5.39-2.84-5.63-.22-.44-2.94-6.26-3.2-6.92h-.1l-1,11.26c0,.39,0,.83,0,1.24a.78.78,0,0,0,.63.75,4.44,4.44,0,0,0,.92.12c.1,0,.19,0,.19.12s-.14.22-.44.22c-.9,0-2.06-.07-2.26-.07s-1.38.07-2,.07c-.24,0-.41,0-.41-.22s.12-.12.24-.12a3.13,3.13,0,0,0,.73-.07c.8-.14.87-1.09,1-2l1.75-15.82c0-.27.12-.44.27-.44s.24.1.36.36L128,118l7.13-15.24c.1-.22.19-.39.36-.39s.24.19.29.65Z"/><path class="c" d="M161.3,103.75c0-.14.07-.22.29-.27a5.36,5.36,0,0,1,1.17-.12c2.38,0,3.27,2.16,3.27,4.17a3.74,3.74,0,0,1-.87,2.45c-.51.58-.85.63-2.21.63a8.39,8.39,0,0,1-1.48-.1c-.12,0-.17-.09-.17-.26ZM159.36,114c0,2.33,0,4.25-.12,5.27-.1.7-.22,1.24-.7,1.34a3.72,3.72,0,0,1-.73.1c-.14,0-.19.07-.19.15s.12.19.39.19c.73,0,2.26-.07,2.38-.07s2.67.15,3.23.15c4.15,0,6.19-2.69,6.19-5.29,0-2.84-2.4-4.56-4.2-5.12,1.14-1.19,2.28-2.38,2.28-4.37,0-1.21-.87-3.64-4.85-3.64-1.12,0-2.06.07-2.65.07-.12,0-1.65-.07-2.74-.07-.27,0-.39,0-.39.19s.1.15.19.15a4.66,4.66,0,0,1,.82.07c.8.17,1,.56,1,1.38s0,1.45,0,5.24Zm1.94-2.55c0-.12,0-.17.15-.17.36,0,1.58,0,1.89,0a4,4,0,0,1,2,.7,5.81,5.81,0,0,1,2.35,4.85,3.24,3.24,0,0,1-3.42,3.45,5.74,5.74,0,0,1-2.13-.36c-.75-.36-.75-.7-.83-1.89,0-.36,0-3.37,0-5.24Z"/><path class="c" d="M192.53,103.89a.29.29,0,0,1,.19-.29,7.27,7.27,0,0,1,1.63-.14c2.6,0,4.2,1.82,4.2,4.85a4.43,4.43,0,0,1-1.48,3.74,3.13,3.13,0,0,1-1.82.46,6.71,6.71,0,0,1-2.55-.39.32.32,0,0,1-.17-.29ZM190.59,114c0,2.33,0,4.25-.12,5.27-.1.7-.22,1.24-.7,1.34a3.7,3.7,0,0,1-.73.1c-.14,0-.19.07-.19.14s.12.2.39.2c.73,0,2.26-.07,2.28-.07s1.65.07,3,.07c.27,0,.39-.07.39-.2s0-.14-.19-.14a10.37,10.37,0,0,1-1.09-.1c-.73-.1-.88-.63-.95-1.34-.12-1-.12-2.94-.12-5.27v-.58c0-.12.05-.19.17-.19l3,0a.39.39,0,0,1,.32.14c.48.63,1.63,2.26,2.64,3.59,1.38,1.82,2.23,3,3.27,3.57a4.93,4.93,0,0,0,2.6.46h1.72c.44,0,.58,0,.58-.2s-.1-.14-.22-.14a5.81,5.81,0,0,1-.94-.07,5,5,0,0,1-3-1.75c-1.41-1.51-3.06-3.66-5-6.21,2.18-2,2.94-3.81,2.94-5.6a4.25,4.25,0,0,0-1.67-3.3,7.47,7.47,0,0,0-4.44-1.07c-.75,0-2.59.07-2.86.07s-1.65-.07-2.74-.07c-.27,0-.39,0-.39.19s.09.15.19.15a4.53,4.53,0,0,1,.83.07c.8.17,1,.56,1,1.38s0,1.46,0,5.24Z"/><path class="c" d="M225.48,114c0,2.33,0,4.25.12,5.27.07.7.22,1.24.94,1.34a10.48,10.48,0,0,0,1.09.1c.15,0,.19.07.19.14s-.12.2-.39.2c-1.33,0-2.86-.07-3-.07s-1.65.07-2.38.07c-.27,0-.39,0-.39-.2s0-.14.19-.14a3.7,3.7,0,0,0,.73-.1c.49-.1.61-.63.7-1.34.12-1,.12-2.94.12-5.27v-4.27c0-3.79,0-4.46,0-5.24s-.29-1.24-.82-1.36a3.12,3.12,0,0,0-.75-.1c-.1,0-.2,0-.2-.15s.12-.19.39-.19c.8,0,2.33.07,2.45.07s1.65-.07,2.38-.07c.26,0,.39,0,.39.19s-.1.15-.2.15a3.55,3.55,0,0,0-.61.07c-.66.12-.85.53-.9,1.38s0,1.46,0,5.24Z"/><path class="c" d="M261.94,120.68a3.13,3.13,0,0,1-1-.14c-.51-.15-1.21-.53-2.09-2.69-1.48-3.69-5.29-13.71-5.65-14.63-.29-.75-.39-.87-.53-.87s-.24.14-.53.95l-5.51,15.07c-.44,1.21-.92,2.13-2,2.28a7,7,0,0,1-.7,0c-.12,0-.22,0-.22.14s.14.2.46.2c1.14,0,2.48-.07,2.74-.07s1.31.07,1.89.07c.22,0,.36,0,.36-.2s-.07-.14-.24-.14h-.24c-.41,0-.92-.22-.92-.7a5.17,5.17,0,0,1,.34-1.63l.9-2.67,0,0,.12,0h6.54a.51.51,0,0,1,.12,0,.68.68,0,0,1,.1.15h0l1.58,4.17c.15.39,0,.61-.14.65s-.17.07-.17.17.27.14.73.17c1.67,0,3.45,0,3.81,0s.49,0,.49-.2-.1-.14-.24-.14m-12-7.86,2.13-6.55q.18-.55.36,0l2.3,6.55c0,.1,0,.17-.1.17h-4.63c-.07,0-.12-.05-.07-.17m5.45,1.86a.17.17,0,0,1-.09.06h-5.92s-.06,0-.07,0a.64.64,0,0,1,0-.07l.2-.58a.25.25,0,0,1,.24-.2H255a.21.21,0,0,1,.22.15l.23.61a.18.18,0,0,1,0,.06"/><path class="c" d="M100.46,120.68a3.13,3.13,0,0,1-1-.14c-.51-.15-1.21-.53-2.09-2.69-1.48-3.69-5.29-13.71-5.65-14.63-.29-.75-.39-.87-.53-.87s-.24.14-.53.95l-5.51,15.07c-.44,1.21-.92,2.13-2,2.28a7,7,0,0,1-.7,0c-.12,0-.22,0-.22.14s.14.2.46.2c1.14,0,2.47-.07,2.74-.07s1.31.07,1.89.07c.22,0,.36,0,.36-.2s-.07-.14-.24-.14h-.24c-.41,0-.92-.22-.92-.7a5.12,5.12,0,0,1,.34-1.63l.9-2.66,0,0,.13,0h6.54a.51.51,0,0,1,.12,0,.43.43,0,0,1,.09.13L96,120c.15.39,0,.61-.15.65s-.17.07-.17.17.27.14.73.17c1.67,0,3.45,0,3.81,0s.49,0,.49-.2-.1-.14-.24-.14m-12-7.86,2.13-6.55q.18-.55.37,0l2.3,6.55c0,.1,0,.17-.1.17H88.57c-.07,0-.12-.05-.07-.17M94,114.68a.17.17,0,0,1-.09.06H88s-.06,0-.07,0a.71.71,0,0,1,0-.08l.19-.56a.26.26,0,0,1,.24-.2h5.22a.21.21,0,0,1,.22.15l.24.63,0,0"/><path class="c" d="M264.93,103.32a2.13,2.13,0,1,1,2-2.12,2.08,2.08,0,0,1-2,2.12m0,.25a2.38,2.38,0,1,0-2.37-2.37,2.37,2.37,0,0,0,2.37,2.37m-.7-2.09c0,.43,0,.61,0,.74s0,.18-.26.19c0,0-.07,0-.07,0s0,0,.05,0h.89a.06.06,0,0,0,.07,0,.05.05,0,0,0-.06,0c-.07,0-.19,0-.23,0s-.05-.07-.05-.67v-.3H265c.08.12.22.33.37.53a1.81,1.81,0,0,0,.47.51,1,1,0,0,0,.43.07h.08c.06,0,.07,0,.07,0s0,0-.06,0a.6.6,0,0,1-.37-.22c-.21-.21-.43-.55-.72-.91a1.07,1.07,0,0,0,.42-.8.59.59,0,0,0-.24-.48,1.11,1.11,0,0,0-.68-.14h-.86s-.07,0-.07,0,0,0,.06,0,.27,0,.28.19,0,.33,0,.74Zm.32-1.46a.75.75,0,0,1,.23,0,.6.6,0,0,1,.61.66.61.61,0,0,1-.22.52.37.37,0,0,1-.24.07.91.91,0,0,1-.38-.07Z"/></svg>