<svg xmlns="http://www.w3.org/2000/svg" viewBox="0 0 144.67 73.19">
  <defs>
    <style>
      .cls-1{fill:#13487c;}.cls-2{fill:none;}
    </style>
  </defs>
  <g id="Layer_2" data-name="Layer 2">
    <g id="Layer_1-2" data-name="Layer 1">
      <path d="M122 56.94L31.19 57V40.45h90.82zm-75.42-8.15a6.62 6.62 0 0 0-2-4.83 7.06 7.06 0 0 0-9.86 0 6.76 6.76 0 0 0 .52 10.1 7 7 0 0 0 9.35-.44 6.6 6.6 0 0 0 2-4.83m-6.94 4.36a4.08 4.08 0 0 1-4.1-4.35 4.1 4.1 0 1 1 4.1 4.35m18.5 2.12l-3.59-5.92a3.31 3.31 0 0 0 2.9-3.41c0-2.46-1.57-3.7-4.74-3.7h-4v13h2.79v-6.05l3.43 6.08zm-6.64-7.47v-3.43h.42c1.77 0 2.77.25 2.77 1.77s-1 1.66-2.77 1.66zm8.17 7.47h2.79v-13h-2.8zm11.95-6.88v2.3h3.14v.15c0 1.37-1.24 2.33-3.08 2.33a4.09 4.09 0 0 1-4.19-4.41 4.06 4.06 0 0 1 4.24-4.41A3.86 3.86 0 0 1 75 46l1.88-1.39a6.48 6.48 0 0 0-5.29-2.66 6.84 6.84 0 1 0 0 13.67c3.46 0 6-2.57 6-6.56v-.66zm8 6.87h2.79v-13h-2.76zm5.55 0h2.66v-7.44a14.68 14.68 0 0 0-.18-2.59 10.32 10.32 0 0 0 1.17 2.3l5.93 7.73h2.73v-13h-2.63v7.29a14.82 14.82 0 0 0 .14 2.53 10.06 10.06 0 0 0-1.17-2.28l-5.76-7.58h-2.9zm13.55 0h3l.91-2.77h5l1.06 2.77h3.17l-5-13h-3.19zm8.29-5h-3.61l1.4-4.16a17.27 17.27 0 0 0 .38-1.8 16.18 16.18 0 0 0 .36 1.75zm6.13 5h7.23v-2.39H116V42.21h-2.79zm-88.33.48l-.02 1.47-1.56-.03.08-4.73 1.56.02-.03 1.48 5.03.08-.03 1.8-5.03-.09zm-1.49-3.99l.03-1.79 2.56.04.04-2.4-2.56-.04.03-1.8 6.59.11-.03 1.8-2.68-.04-.04 2.39 2.68.04-.03 1.8-6.59-.11zm.12-7.35l.07-4.04 1.45.02-.04 2.29 1.14.02.04-2.16 1.41.03-.04 2.15 1.11.02.04-2.28 1.48.02-.07 4.04-6.59-.11zm96.09-28.88h1.15a1.74 1.74 0 0 1 1.73 1.73V19a1.74 1.74 0 0 1-1.73 1.73h-1.15a1.74 1.74 0 0 1-1.73-1.73v-1.75a1.74 1.74 0 0 1 1.73-1.73m2.3 3.46v-1.73a1.16 1.16 0 0 0-1.15-1.15h-1.15a1.16 1.16 0 0 0-1.15 1.15V19a1.16 1.16 0 0 0 1.15 1.15h1.15a1.16 1.16 0 0 0 1.16-1.15m-.57.58h-.58V19a.58.58 0 0 0-.58-.58h-.58v1.16H119v-2.91h1.73a.58.58 0 0 1 .58.58v.29a.55.55 0 0 1-.14.4.72.72 0 0 1-.43.18.61.61 0 0 1 .43.14.55.55 0 0 1 .14.42zm-1.73-2.31v.58h.87a.29.29 0 0 0 .22-.07.3.3 0 0 0 .07-.22.25.25 0 0 0-.29-.29zM35 28.05q-.24 3.69-3.69 3.69h-3.7a3.71 3.71 0 0 1-3.69-3.69V18.8A3.59 3.59 0 0 1 25 16.21a3.51 3.51 0 0 1 2.62-1.1h3.71q3.48 0 3.69 3.69h-1.87q-.21-1.8-1.83-1.8h-1.86a1.79 1.79 0 0 0-1.31.54 1.76 1.76 0 0 0-.55 1.29v9.25a1.86 1.86 0 0 0 1.85 1.84h1.85q1.63 0 1.84-1.84zm7.39-12.94h3.71a3.72 3.72 0 0 1 3.69 3.69v9.25a3.73 3.73 0 0 1-3.69 3.69h-3.71a3.71 3.71 0 0 1-3.69-3.69V18.8a3.71 3.71 0 0 1 3.69-3.69m0 3.69v9.25a1.85 1.85 0 0 0 3.71 0V18.8a1.75 1.75 0 0 0-.55-1.29 1.84 1.84 0 0 0-2.61 0 1.76 1.76 0 0 0-.55 1.29m11.09 12.94V15.11h7.4a3.72 3.72 0 0 1 3.69 3.69v1a4 4 0 0 1-.85 2.39 3.3 3.3 0 0 1-2.84 1.15h1.84a1.86 1.86 0 0 1 1.85 1.86v6.55h-3.69V26.2A1.87 1.87 0 0 0 59 24.35h-1.83v7.4zm3.69-9.24H59a1.88 1.88 0 0 0 1.86-1.85V18.8a1.76 1.76 0 0 0-.55-1.3A1.8 1.8 0 0 0 59 17h-1.83zm11.09 9.25V15.11h9.24v1.86h-5.55v5.54h3.71v1.84h-3.71v5.54h5.55v1.86h-9.24zm14.8-16.64h3.69v3.69h1.86v1.85h-1.86v7.4a1.64 1.64 0 0 0 .59 1.36 1.8 1.8 0 0 0 1.09.47h.17v1.85h-1.85a3.7 3.7 0 0 1-3.69-3.69v-7.4h-1.85V18.8h1.86zm20.33 11.1H96v1.85a1.86 1.86 0 0 0 1.85 1.84h1.85a1.62 1.62 0 0 0 1.84-1.84h1.85q-.43 3.69-3.69 3.69H96a3.71 3.71 0 0 1-3.69-3.69v-5.55a3.72 3.72 0 0 1 3.69-3.7h3.7a3.54 3.54 0 0 1 2.6 1.1 3.58 3.58 0 0 1 1.09 2.61zM96 24.35h3.71v-1.83a1.85 1.85 0 0 0-3.71 0zm20.31-1.83h-1.84q-.22-1.85-1.85-1.85a1.86 1.86 0 0 0-1.85 1.85v5.55a1.86 1.86 0 0 0 1.85 1.84q1.64 0 1.86-1.84h1.84q-.23 3.69-3.69 3.69h-1.85a3.71 3.71 0 0 1-3.69-3.69v-5.55a3.72 3.72 0 0 1 3.69-3.71h1.85q3.48 0 3.69 3.71" class="cls-1"/>
      <path d="M122 62.24H22.67A4.62 4.62 0 0 1 18 57.62v-42A4.62 4.62 0 0 1 22.62 11H122a4.62 4.62 0 0 1 4.62 4.62v42a4.62 4.62 0 0 1-4.62 4.62m-98.42-1h97.5a4.62 4.62 0 0 0 4.62-4.62v-40a4.62 4.62 0 0 0-4.62-4.62H23.59A4.62 4.62 0 0 0 19 16.58v40a4.62 4.62 0 0 0 4.62 4.62" class="cls-1"/>
      <path d="M122 62.71H22.67a5.1 5.1 0 0 1-5.09-5.1v-42a5.1 5.1 0 0 1 5.09-5.09H122a5.1 5.1 0 0 1 5.1 5.09v42a5.1 5.1 0 0 1-5.1 5.1M18.52 57.12v.5a4.16 4.16 0 0 0 4.15 4.15H122a4.16 4.16 0 0 0 4.15-4.15v-.5a5.1 5.1 0 0 1-5.07 4.58H23.59a5.1 5.1 0 0 1-5.07-4.58m5.07-44.69a4.16 4.16 0 0 0-4.15 4.15v40a4.16 4.16 0 0 0 4.15 4.15h97.5a4.16 4.16 0 0 0 4.15-4.15v-40a4.16 4.16 0 0 0-4.15-4.15zm0-.94h97.5a5.1 5.1 0 0 1 5.07 4.58v-.5a4.16 4.16 0 0 0-4.16-4.15H22.67a4.16 4.16 0 0 0-4.15 4.15v.5a5.1 5.1 0 0 1 5.07-4.58" class="cls-1"/>
      <path d="M22.3 35.74h99.71v1.86H22.3z" class="cls-1"/>
      <path d="M0 0h144.67v73.19H0z" class="cls-2"/>
    </g>
  </g>
</svg>
