<svg xmlns="http://www.w3.org/2000/svg" viewBox="0 0 310 140"><defs><style>.a{fill:none;}.b{fill:#a39161;}</style></defs><title>Mirrage_orig_t</title><rect class="a" width="310" height="140"/><path class="b" d="M219.71,62.69c0-.22-.11-.33-.22-.33h-.55V63h.55c.11-.11.22-.22.22-.33Zm-32.47,5.43a2.44,2.44,0,0,0,0,4.88,2.27,2.27,0,0,0,2.44-2.44,2.33,2.33,0,0,0-2.44-2.44Zm24.38-.89a2.21,2.21,0,0,0-2.22,1.44h4.21a2,2,0,0,0-2-1.44Zm-49.31,1a2.44,2.44,0,1,0,0,4.88,2.27,2.27,0,0,0,2.44-2.44,2.33,2.33,0,0,0-2.44-2.44Zm57-3.77a1.51,1.51,0,0,1-1.55-1.55,1.58,1.58,0,0,1,1.55-1.55,1.51,1.51,0,0,1,1.55,1.55,1.67,1.67,0,0,1-1.55,1.55ZM66.69,70h0c0,22.16,39.56,40,88.31,40s88.31-18,88.31-40S203.75,30,155,30,66.69,48,66.69,70Zm151.25,1.44H209.4a2.12,2.12,0,0,0,2.33,2.22,1.78,1.78,0,0,0,1.77-1v-.11h4.21v.22c-.66,3-3.55,4.1-6,4.1-4.1,0-6.87-2.44-6.87-6.32s2.55-6.32,6.54-6.32,6.43,2.44,6.43,6.54v.66ZM194,75.21c0,4.76-2.22,7-6.87,7-3,0-6.32-1.55-6.76-4.54v-.22h4.88v.11a1.2,1.2,0,0,0,.66.78,3.28,3.28,0,0,0,1.11.22c2,0,2.44-1.22,2.44-3.1h0A5,5,0,0,1,186,76.76a5.76,5.76,0,0,1-5.87-6.09,6.16,6.16,0,0,1,6.09-6.43,4.1,4.1,0,0,1,3.21,1.33v-.89h4.43V75.21Zm-24.93,1.33H165.3L153.89,92.16l-.44-.33,11.19-15.29v-1a4.34,4.34,0,0,1-3.32,1.33,5.26,5.26,0,0,1-2.66-.66L147,92l-.44-.33L158.1,75.87a6.22,6.22,0,0,1-2.77-4.65L140.15,92l-.44-.33,15.62-21.27a6.26,6.26,0,0,1,4.32-6l12-16.4.44.33-11.52,16h.78a4.71,4.71,0,0,1,3.32,1.22v-.89h1.77l12.08-16.51.44.33L167.08,64.68H169v5.76l16.29-22.27.44.33L169,71.44v5.1ZM132.84,91.83l31.91-43.66.44.33L133.28,92.16l-.44-.33Zm-6.87,0,11.19-15.29h-.78V69.22l-16.84,23-.44-.33,17.29-23.6V64.79h2.55L151,48.28l.44.33L139.6,64.79h1.22v1.55a4.08,4.08,0,0,1,3.55-1.66h1v.78l12.52-17.17.44.33-13,17.62v2.66l-.33-.11a2.82,2.82,0,0,0-1.66-.33c-1.88,0-2.66,1-2.66,3.32v4.76h-3L126.3,92.16l-.33-.33ZM108.13,76.54H103.7V70.78a4,4,0,0,0-.55-2.55,1.26,1.26,0,0,0-.89-.33c-1.66,0-1.77,1.44-1.77,3v5.65H96.05V70.89c0-1.55-.11-3-1.66-3s-1.66,1.44-1.66,3v5.65H88.3V64.68h4.43v1.11a4.54,4.54,0,0,1,3.43-1.55,4.17,4.17,0,0,1,3.88,2,4.53,4.53,0,0,1,3.88-2c2.77,0,4.1,1.55,4.1,4.76v7.53ZM120,64.68h4.43V76.54H120V64.68Zm0-5.32h4.43v4.1H120v-4.1Zm99.83,4.54-.33-.78h-.55v.78h-.11V62.13h.66a.48.48,0,0,1,.44.44c0,.22-.11.33-.33.44l.33.78-.11.11Zm-.55-2.33a1.33,1.33,0,1,0,1.33,1.33,1.43,1.43,0,0,0-1.33-1.33Z"/></svg>